<?xml version="1.0" standalone="no"?>
<!DOCTYPE svg PUBLIC "-//W3C//DTD SVG 20010904//EN"
 "http://www.w3.org/TR/2001/REC-SVG-20010904/DTD/svg10.dtd">
<svg version="1.0" xmlns="http://www.w3.org/2000/svg"
 width="204.000000pt" height="192.000000pt" viewBox="0 0 204.000000 192.000000"
 preserveAspectRatio="xMidYMid meet">

<g transform="translate(0.000000,192.000000) scale(0.100000,-0.100000)"
fill="#000000" stroke="none">
<path d="M1365 1667 l-110 -72 -3 -122 -3 -122 63 -47 c90 -66 120 -77 203
-72 65 3 76 8 151 56 77 49 82 55 87 94 3 22 3 81 0 129 l-6 88 -107 71 c-71
46 -117 70 -136 70 -19 0 -66 -25 -139 -73z m190 -91 c62 -41 75 -60 75 -115
0 -47 -22 -74 -76 -97 -49 -21 -82 -17 -130 14 l-44 27 0 65 0 65 58 37 c31
20 58 37 60 37 2 1 27 -15 57 -33z"/>
<path d="M988 1585 c-32 -18 -43 -47 -28 -74 23 -43 78 -53 110 -21 27 27 25
56 -5 85 -28 29 -39 30 -77 10z"/>
<path d="M725 1359 c-30 -18 -35 -29 -35 -86 0 -51 -1 -53 -40 -73 -21 -11
-44 -20 -50 -20 -5 0 -30 16 -56 35 -62 48 -84 45 -150 -16 -67 -64 -69 -86
-14 -140 46 -46 49 -67 17 -97 -19 -18 -35 -22 -83 -22 -97 0 -104 -9 -104
-140 0 -134 4 -140 96 -140 71 0 98 -16 110 -66 6 -23 0 -33 -35 -65 -54 -50
-53 -73 7 -131 65 -63 85 -72 119 -54 16 8 37 23 47 35 24 26 61 27 104 1 30
-18 32 -24 32 -73 0 -80 18 -92 132 -92 105 0 118 9 118 85 0 52 10 70 59 99
31 18 37 18 62 5 41 -21 59 -53 59 -106 0 -54 16 -74 63 -83 18 -4 132 -5 253
-3 202 3 224 5 243 22 21 19 21 26 21 347 0 327 0 328 -22 343 -19 13 -58 16
-225 16 -197 0 -202 1 -217 22 -25 35 -19 59 25 104 50 51 48 63 -26 133 -65
61 -88 64 -145 16 -49 -41 -65 -43 -111 -12 -30 20 -35 29 -39 79 -3 32 -11
63 -18 70 -17 17 -170 22 -197 7z m179 -385 c108 -55 149 -181 91 -280 -105
-180 -395 -107 -395 99 0 91 48 155 142 188 58 21 110 19 162 -7z m666 -394
l0 -240 -160 0 -160 0 0 240 0 240 160 0 160 0 0 -240z"/>
</g>
</svg>
