<?xml version="1.0" standalone="no"?>
<!DOCTYPE svg PUBLIC "-//W3C//DTD SVG 20010904//EN"
 "http://www.w3.org/TR/2001/REC-SVG-20010904/DTD/svg10.dtd">
<svg version="1.0" xmlns="http://www.w3.org/2000/svg"
 width="574.000000pt" height="526.000000pt" viewBox="0 0 574.000000 526.000000"
 preserveAspectRatio="xMidYMid meet">

<g transform="translate(0.000000,526.000000) scale(0.100000,-0.100000)"
fill="#e2e2e2" stroke="none">
<path d="M3895 5113 c-69 -6 -236 -44 -309 -70 -94 -34 -232 -103 -306 -153
-196 -133 -363 -336 -437 -530 -23 -60 -83 -293 -83 -321 0 -18 185 -3 312 26
434 98 757 375 889 763 24 68 59 238 59 285 0 7 -46 7 -125 0z"/>
<path d="M1324 4851 c-156 -90 -263 -298 -264 -514 0 -43 -3 -77 -8 -75 -4 2
-32 15 -62 30 -145 73 -301 50 -398 -56 -64 -70 -85 -125 -86 -221 -1 -76 2
-85 51 -190 39 -83 58 -140 78 -235 83 -400 203 -575 420 -610 122 -20 269 42
354 150 78 99 106 172 207 545 15 55 46 138 70 183 39 73 44 92 44 148 0 87
-30 162 -88 222 -111 113 -271 137 -416 62 l-59 -30 6 87 c15 196 72 309 204
406 66 48 79 80 47 111 -22 23 -42 20 -100 -13z"/>
<path d="M1637 4809 c24 -193 170 -425 353 -562 167 -126 436 -217 640 -217
l79 0 -25 93 c-32 119 -109 275 -175 355 -173 209 -468 348 -779 368 l-98 7 5
-44z"/>
<path d="M4709 4586 c-169 -60 -277 -189 -287 -342 -5 -84 4 -144 21 -144 7 0
50 18 95 40 150 72 232 175 267 334 20 91 17 130 -10 133 -11 2 -50 -8 -86
-21z"/>
<path d="M4153 4308 c151 -150 207 -198 234 -198 35 0 -36 147 -102 212 -52
52 -134 99 -214 122 -30 9 -58 16 -62 16 -5 0 60 -68 144 -152z"/>
<path d="M4000 4100 c-176 -37 -299 -198 -300 -392 0 -213 125 -397 366 -539
164 -97 311 -133 440 -110 227 40 490 229 578 415 110 229 51 486 -135 586
-62 34 -67 35 -174 35 -99 0 -120 -3 -210 -34 -130 -45 -172 -45 -301 1 -111
40 -195 52 -264 38z"/>
<path d="M2656 3700 c-213 -34 -403 -128 -555 -274 -165 -159 -259 -331 -302
-546 l-11 -57 -111 0 c-87 -1 -125 -5 -169 -21 -352 -126 -450 -580 -183 -843
101 -100 238 -154 374 -147 l71 3 0 -110 c0 -96 27 -276 44 -293 3 -2 21 29
42 69 172 342 436 545 791 605 219 37 471 -13 687 -136 162 -93 319 -261 403
-431 22 -44 41 -73 45 -66 17 31 38 176 38 262 l0 95 58 0 c168 0 292 50 393
158 101 107 139 203 139 350 0 131 -40 231 -129 326 -109 116 -235 169 -396
167 l-100 0 -26 107 c-108 447 -493 769 -939 787 -58 2 -131 0 -164 -5z m-101
-541 c74 -28 140 -82 193 -155 40 -55 49 -62 57 -48 66 110 130 168 230 206
69 26 175 30 240 8 232 -76 315 -357 176 -595 -69 -118 -215 -255 -336 -315
-180 -89 -362 -104 -538 -43 -116 41 -183 82 -283 176 -167 158 -239 324 -213
490 38 235 253 360 474 276z"/>
<path d="M2470 2922 c-78 -79 4 -204 103 -157 90 43 70 169 -30 182 -37 5 -45
2 -73 -25z"/>
<path d="M2977 2925 c-42 -42 -42 -97 0 -139 58 -58 163 -14 163 69 0 82 -105
127 -163 70z"/>
<path d="M2610 2530 c-73 -18 3 -132 109 -164 68 -20 84 -20 150 0 103 30 172
139 105 164 -40 15 -54 12 -82 -18 -59 -63 -109 -68 -174 -19 -50 38 -72 46
-108 37z"/>
<path d="M5299 3305 c-75 -15 -215 -69 -212 -82 25 -130 21 -229 -11 -308 -9
-22 -60 -81 -124 -144 -129 -126 -135 -138 -182 -381 -90 -463 -264 -892 -488
-1210 -86 -122 -245 -281 -347 -348 -44 -28 -89 -58 -101 -66 -11 -8 -31 -43
-44 -78 -30 -85 -90 -202 -134 -262 -19 -28 -34 -51 -32 -53 8 -8 427 142 519
185 599 283 1058 813 1276 1472 47 143 71 263 78 387 10 179 -22 290 -122 418
-60 76 -71 99 -80 157 -10 67 18 182 60 253 51 84 53 82 -56 60z m-178 -595
c5 0 18 -9 29 -20 38 -38 18 -193 -64 -491 -167 -610 -495 -1108 -927 -1409
-74 -51 -69 -43 65 100 360 385 590 861 711 1469 19 97 40 200 46 229 15 75
76 140 117 126 8 -2 18 -4 23 -4z"/>
<path d="M234 3258 c8 -18 26 -60 41 -93 33 -71 44 -173 25 -230 -7 -21 -42
-76 -77 -123 -36 -47 -74 -104 -84 -127 -104 -235 22 -774 276 -1185 185 -298
439 -556 751 -762 250 -166 438 -257 684 -333 63 -19 118 -35 122 -35 3 0 -14
30 -39 67 -54 80 -79 131 -122 238 -27 69 -37 84 -69 100 -70 38 -187 132
-264 213 -283 297 -501 767 -649 1395 -17 72 -42 169 -55 215 -26 88 -38 103
-170 222 -28 25 -63 68 -80 95 -28 48 -29 55 -29 173 0 121 0 124 -25 138 -42
23 -179 64 -216 64 l-34 0 14 -32z m314 -552 c40 -36 51 -68 108 -324 90 -399
172 -635 315 -912 99 -190 202 -339 332 -480 122 -133 182 -208 174 -216 -9
-9 -202 143 -293 232 -292 287 -486 616 -625 1060 -57 184 -139 525 -139 580
0 87 65 118 128 60z"/>
<path d="M2670 1905 c-287 -46 -526 -223 -650 -480 -63 -130 -81 -203 -87
-351 -11 -252 78 -476 258 -653 518 -509 1389 -200 1479 524 24 192 -32 421
-141 582 -48 71 -166 189 -233 235 -178 122 -420 177 -626 143z"/>
</g>
</svg>
